<svg width="24" height="24" viewBox="0 0 24 24" fill="currentColor" xmlns="http://www.w3.org/2000/svg">
<path d="M18 6H8.28748C8.08856 6 7.8978 5.92098 7.75715 5.78033C7.61649 5.63968 7.53748 5.44891 7.53748 5.25C7.53748 5.05109 7.61649 4.86032 7.75715 4.71967C7.8978 4.57902 8.08856 4.5 8.28748 4.5H18.75C18.9489 4.5 19.1397 4.57902 19.2803 4.71967C19.421 4.86032 19.5 5.05109 19.5 5.25V15.75C19.5 15.9489 19.421 16.1397 19.2803 16.2803C19.1397 16.421 18.9489 16.5 18.75 16.5C18.5511 16.5 18.3603 16.421 18.2196 16.2803C18.079 16.1397 18 15.9489 18 15.75V6Z" fill="currentColor"/>
<path d="M18.219 4.719C18.3598 4.57817 18.5508 4.49905 18.75 4.49905C18.9491 4.49905 19.1401 4.57817 19.281 4.719C19.4218 4.85983 19.5009 5.05084 19.5009 5.25C19.5009 5.44916 19.4218 5.64017 19.281 5.781L6.53097 18.531C6.46124 18.6007 6.37846 18.656 6.28735 18.6938C6.19624 18.7315 6.09859 18.7509 5.99997 18.7509C5.90135 18.7509 5.8037 18.7315 5.7126 18.6938C5.62149 18.656 5.5387 18.6007 5.46897 18.531C5.39924 18.4613 5.34392 18.3785 5.30619 18.2874C5.26845 18.1963 5.24902 18.0986 5.24902 18C5.24902 17.9014 5.26845 17.8037 5.30619 17.7126C5.34392 17.6215 5.39924 17.5387 5.46897 17.469L18.219 4.719Z" fill="currentColor"/>
</svg>
