<svg width="25" height="24" viewBox="0 0 25 24" fill="none" xmlns="http://www.w3.org/2000/svg">
<path d="M0.5 23.9999L2.187 17.837C1.146 16.033 0.599 13.988 0.6 11.891C0.603 5.33499 5.93799 0 12.493 0C15.674 0.000999998 18.66 1.24 20.906 3.48799C23.1509 5.73599 24.3869 8.72398 24.3859 11.902C24.3829 18.459 19.048 23.7939 12.493 23.7939C10.503 23.7929 8.54198 23.2939 6.80499 22.346L0.5 23.9999ZM7.09698 20.193C8.77298 21.188 10.373 21.784 12.489 21.785C17.937 21.785 22.375 17.351 22.378 11.9C22.38 6.43799 17.963 2.01 12.497 2.008C7.04498 2.008 2.61 6.44199 2.608 11.892C2.607 14.117 3.25899 15.783 4.35399 17.526L3.35499 21.174L7.09698 20.193ZM18.484 14.729C18.41 14.605 18.212 14.531 17.914 14.382C17.617 14.233 16.156 13.514 15.883 13.415C15.611 13.316 15.413 13.266 15.214 13.564C15.016 13.861 14.446 14.531 14.273 14.729C14.1 14.927 13.926 14.952 13.629 14.803C13.332 14.654 12.374 14.341 11.239 13.328C10.356 12.54 9.75898 11.567 9.58598 11.269C9.41298 10.972 9.56798 10.811 9.71598 10.663C9.84998 10.53 10.013 10.316 10.162 10.142C10.313 9.96998 10.362 9.84598 10.462 9.64698C10.561 9.44898 10.512 9.27498 10.437 9.12598C10.362 8.97798 9.76798 7.51498 9.52098 6.91998C9.27898 6.34099 9.03398 6.41899 8.85198 6.40999L8.28198 6.39999C8.08398 6.39999 7.76198 6.47399 7.48998 6.77199C7.21798 7.06998 6.44999 7.78798 6.44999 9.25098C6.44999 10.714 7.51498 12.127 7.66298 12.325C7.81198 12.523 9.75798 15.525 12.739 16.812C13.448 17.118 14.002 17.301 14.433 17.438C15.145 17.664 15.793 17.632 16.305 17.556C16.876 17.471 18.063 16.837 18.311 16.143C18.559 15.448 18.559 14.853 18.484 14.729Z" fill="#FFFCFC"/>
</svg>
