<svg width="121" height="34" viewBox="0 0 121 34"  xmlns="http://www.w3.org/2000/svg">
<path d="M114.291 15.3919C112.784 14.1667 110.69 13.554 108.414 13.554C106.137 13.554 104.246 14.1667 102.739 15.3919C101.262 16.5865 99.2459 19.0975 99.7012 23.0528L106.996 19.2224L114.291 15.3919C114.487 16.6005 113.953 13.309 114.291 15.3919ZM99.5089 13.3703C101.754 11.1955 104.722 10.1081 108.414 10.1081C112.105 10.1081 115.073 11.1955 117.318 13.3703C119.533 15.545 120.64 18.4396 120.64 22.054L120.594 22.927L120.502 23.754H99.7825C100.121 25.8676 101.262 27.5216 102.739 28.7162C104.246 29.9414 106.137 30.554 108.414 30.554C111.705 30.554 114.104 29.3594 115.611 26.9703H119.764C118.902 29.1757 117.487 30.891 115.519 32.1162C113.52 33.3721 111.151 34 108.414 34C104.722 34 101.754 32.9126 99.5089 30.7378C97.2942 28.5631 96.1869 25.6685 96.1869 22.054C96.1869 18.4396 97.2942 15.545 99.5089 13.3703Z" fill="currentColor"/>
<path d="M85.4933 21.1352L85.2626 20.6757C85.2626 17.2451 86.047 14.5649 87.6157 12.6352C89.2767 10.6442 91.6451 9.64868 94.721 9.64868V13.0946C91.8912 13.0946 89.6611 13.7991 88.0309 15.2081C86.3392 16.6172 85.4933 18.5928 85.4933 21.1352ZM81.8022 33.0811V10.1081H85.4933V33.0811H81.8022Z" fill="currentColor"/>
<path d="M71.6644 33.0811V26.2351C71.3568 28.073 70.6954 29.5892 69.6804 30.7838C68.1732 32.6216 65.9893 33.5405 63.1288 33.5405C60.2374 33.5405 57.9305 32.6216 56.208 30.7838C54.5163 28.9459 53.6704 26.4955 53.6704 23.4324V10.1081H57.3615V22.973C57.3615 25.1171 58.0074 26.8477 59.2993 28.1649C60.6219 29.4513 62.3598 30.0946 64.5129 30.0946C66.666 30.0946 68.4039 29.4513 69.7265 28.1649C71.0184 26.8477 71.6644 25.1171 71.6644 22.973V10.1081H75.3554V33.0811H71.6644Z" fill="currentColor"/>
<path d="M39.0656 33.0811L44.2248 0.918976H47.9159V33.0811H39.0656Z" fill="currentColor"/>
<path d="M34.0869 33.0811V0.918976H42.576L37.778 33.0811H34.0869Z" fill="currentColor"/>
<path d="M6.08458 29.6351H6.40755C10.2524 29.6351 13.3283 28.4865 15.6352 26.1892C17.9421 23.9225 19.0956 20.8748 19.0956 17.0459L15.4045 8.77568L6.08458 29.6351ZM30.1688 33.0811H26.247L19.6954 18.3784C19.4493 22.8811 18.1421 26.4496 15.7736 29.0838C13.3744 31.7487 10.2524 33.0811 6.40755 33.0811H0.640259L15.4045 0L30.1688 33.0811Z" fill="currentColor"/>
</svg>
